<?xml version="1.0" encoding="UTF-8"?>
<svg id="Capa_2" data-name="Capa 2" xmlns="http://www.w3.org/2000/svg" viewBox="0 0 318.45 74.01">
  <defs>
    <style>
      .cls-1 {
        fill-rule: evenodd;
      }

      .cls-1, .cls-2 {
        fill: #3d3d3b;
      }
    </style>
  </defs>
  <g id="Capa_1-2" data-name="Capa 1">
    <g>
      <path class="cls-2" d="m123.24,55.82v-27.18h-6.7v-5.1h.62c4.47,0,7.23-1.96,7.89-6.2h5.05v38.48h-6.85Z"/>
      <path class="cls-2" d="m135.45,41.42l11.18-24.08h7.08v24.41h3.23v6.08h-3.23v7.99h-6.28v-7.99h-11.98v-6.41Zm11.98-14.29h-.1l-6.56,14.62h6.66v-14.62Z"/>
      <path class="cls-2" d="m179.42,55.82h-20.73c0-6.85,2.42-11.58,7.41-16.85l2.76-2.93c2.99-3.1,3.52-4.84,3.52-8.81,0-3.21-1.19-4.78-3.33-4.78-3.43,0-3.76,3.43-3.8,7.5h-6.56v-1.46c0-7.12,3.28-11.15,10.46-11.15,6.76,0,10.08,3.86,10.08,10.49,0,5-1.38,8.26-5.23,12.23l-3.81,4.02c-2,2.06-3.14,4.18-3.47,5.65h12.7v6.08Z"/>
      <path class="cls-2" d="m181.54,41.42l11.18-24.08h7.08v24.41h3.23v6.08h-3.23v7.99h-6.28v-7.99h-11.98v-6.41Zm11.98-14.29h-.1l-6.56,14.62h6.66v-14.62Z"/>
      <path class="cls-1" d="m236.23,38.21v-1.04c0-2.4,0-4.46,1.03-6.87.67-1.72,1.7-3.78,3.08-5.13,1.72-1.35,3.41-2.74,5.47-3.41,2.05-1.05,4.45-1.4,6.85-1.4,2.76,0,5.48.35,8.89,1.4v5.47c-3.06-1.72-5.8-2.72-9.23-2.72-2.39,0-4.1.66-5.84,1.69-1.7,1.03-3.07,2.39-3.75,4.45-.67,1.7-1.03,3.78-1.03,5.5s.35,3.42.68,5.11c.69,1.38,1.37,3.08,2.39,4.12,1.37,1.36,2.4,2.39,4.12,3.09,1.37.68,3.43,1.04,5.13,1.04,3.09,0,6.5-1.04,9.61-3.11h.35l-2.43,5.5c-2.72.34-5.11,1.02-8.21,1.02-2.72-.34-5.47-.68-8.2-1.37-2.4-1.01-4.45-2.75-6.17-4.8-1.7-2.4-2.73-5.13-2.73-8.54m31.5,7.5v-17.81c0-1.38,0-2.39-.35-3.07,0-.68,0-1.37-.32-1.72-.35-.68-.69-1-1.38-1.35v-.34h10.97c3.42,0,5.83.69,7.54,2.39,1.36,1.7,2.39,3.75,2.39,6.14-.34,1.36-1.03,3.06-2.06,4.46-1.37,1.38-3.44,2.41-5.47,3.09l7.19,8.88c.68.68,1.37,1.72,2.39,2.76,1.37,1.04,2.75,2.07,4.81,3.08h-4.81c-1.37,0-2.39,0-3.08-.34-.67-.67-1.72-1.36-2.05-2.05l-5.47-6.85-4.47-6.5c1.37-.35,2.75-.69,3.78-1.37,1.37-.36,2.39-1.06,3.08-2.11.66-1.01,1.35-2.37,1.35-3.73-.34-1.72-1.01-3.09-2.04-3.77-1.03-.68-2.75-1.01-4.47-1.01-.67,0-1.7,0-2.72.32v24.32c.32,1.04.32,1.73.68,2.07.34.32.67.67,1.37,1.01h-8.91c.69-.34,1.38-1.01,1.7-2.05,0-.68.35-2.43.35-4.48m32.89,2.06v-22.94h-3.78c-2.72,0-4.43.68-5.8,1.69l1.7-5.46c.34.36,1.03.36,2.06.36h18.17c.99,0,1.69,0,2.38-.36l-1.39,5.46c-.32-.66-.99-1.01-1.68-1.35-.71-.34-1.4-.34-2.41-.34h-4.47v22.94c0,.7.34,1.74.34,2.43.35.69,1.05,1.35,2.06,2.05h-9.25c1.39-.34,2.06-2.05,2.06-4.47"/>
      <path class="cls-2" d="m317.65,17h-84.12v39.99h84.92V17h-.8Zm-.82,38.38h-81.68V18.61h81.68v36.78Z"/>
      <polygon class="cls-2" points="21.15 61.66 21.15 12.33 14.1 12.33 14.1 37 7.05 12.33 0 12.33 0 61.67 7.05 61.67 7.05 37 14.1 61.66 14.1 61.67 21.15 61.67 21.15 61.66"/>
      <path class="cls-2" d="m38.74,12.32c-10.45,0-10.55,7.03-10.55,7.03v35.29s.1,7.03,10.57,7.03,10.59-7.03,10.59-7.03V19.35s-.17-7.03-10.61-7.03m-.01,42.3c-3.48,0-3.48-3.56-3.48-3.56v-28.15s-.06-3.54,3.48-3.54,3.57,3.54,3.57,3.54v28.15s-.09,3.56-3.57,3.56"/>
      <polygon class="cls-2" points="81.06 12.33 72.25 39.44 63.44 12.33 56.39 12.33 56.39 61.67 63.44 61.67 63.44 34.01 68.73 50.29 75.78 50.29 81.06 34.01 81.06 61.67 88.11 61.67 88.11 12.33 81.06 12.33"/>
      <rect class="cls-2" width="88.11" height="5.28"/>
      <rect class="cls-2" y="68.72" width="88.11" height="5.28"/>
    </g>
  </g>
</svg>